<?xml version="1.0" encoding="UTF-8" standalone="no"?>
<!-- Created with Inkscape (http://www.inkscape.org/) -->

<svg
   width="1024"
   height="1024"
   viewBox="0 0 270.93333 270.93334"
   version="1.1"
   id="svg5"
   sodipodi:docname="PFPMask.svg"
   inkscape:version="1.1 (c68e22c387, 2021-05-23)"
   xmlns:inkscape="http://www.inkscape.org/namespaces/inkscape"
   xmlns:sodipodi="http://sodipodi.sourceforge.net/DTD/sodipodi-0.dtd"
   xmlns="http://www.w3.org/2000/svg"
   xmlns:svg="http://www.w3.org/2000/svg">
  <sodipodi:namedview
     id="namedview7"
     pagecolor="#505050"
     bordercolor="#eeeeee"
     borderopacity="1"
     inkscape:pageshadow="0"
     inkscape:pageopacity="0"
     inkscape:pagecheckerboard="0"
     inkscape:document-units="mm"
     showgrid="false"
     units="px"
     inkscape:zoom="0.37059484"
     inkscape:cx="284.67747"
     inkscape:cy="630.06814"
     inkscape:window-width="1920"
     inkscape:window-height="1017"
     inkscape:window-x="-8"
     inkscape:window-y="-8"
     inkscape:window-maximized="1"
     inkscape:current-layer="layer1" />
  <defs
     id="defs2" />
  <g
     inkscape:label="Layer 1"
     inkscape:groupmode="layer"
     id="layer1">
    <path
       id="path31"
       style="fill:#000000;fill-rule:evenodd;stroke-width:0.768197"
       d="M 512 0 A 511.99997 511.99997 0 0 0 0 512 A 511.99997 511.99997 0 0 0 512 1024 A 511.99997 511.99997 0 0 0 734.63477 973.04883 A 174.27079 171.08291 0 0 1 646.33008 824.32031 A 174.27079 171.08291 0 0 1 820.59961 653.23828 A 174.27079 171.08291 0 0 1 971.20117 738.25977 A 511.99997 511.99997 0 0 0 1024 512 A 511.99997 511.99997 0 0 0 512 0 z "
       transform="scale(0.26458333)" />
  </g>
</svg>
