<?xml version="1.0" encoding="UTF-8" standalone="no"?>
<svg
   xmlns:dc="http://purl.org/dc/elements/1.1/"
   xmlns:cc="http://creativecommons.org/ns#"
   xmlns:rdf="http://www.w3.org/1999/02/22-rdf-syntax-ns#"
   xmlns:svg="http://www.w3.org/2000/svg"
   xmlns="http://www.w3.org/2000/svg"
   xmlns:sodipodi="http://sodipodi.sourceforge.net/DTD/sodipodi-0.dtd"
   xmlns:inkscape="http://www.inkscape.org/namespaces/inkscape"
   width="24"
   height="24"
   viewBox="0 0 24 24"
   class="icon-1_QxNX"
   version="1.1"
   id="svg6"
   sodipodi:docname="textChannelBlocked.svg"
   inkscape:version="0.92.4 (5da689c313, 2019-01-14)">
  <metadata
     id="metadata12">
    <rdf:RDF>
      <cc:Work
         rdf:about="">
        <dc:format>image/svg+xml</dc:format>
        <dc:type
           rdf:resource="http://purl.org/dc/dcmitype/StillImage" />
        <dc:title></dc:title>
      </cc:Work>
    </rdf:RDF>
  </metadata>
  <defs
     id="defs10" />
  <sodipodi:namedview
     pagecolor="#ffffff"
     bordercolor="#666666"
     borderopacity="1"
     objecttolerance="10"
     gridtolerance="10"
     guidetolerance="10"
     inkscape:pageopacity="0"
     inkscape:pageshadow="2"
     inkscape:window-width="747"
     inkscape:window-height="480"
     id="namedview8"
     showgrid="false"
     inkscape:zoom="9.8333333"
     inkscape:cx="12"
     inkscape:cy="12"
     inkscape:window-x="0"
     inkscape:window-y="0"
     inkscape:window-maximized="0"
     inkscape:current-layer="svg6" />
  <path
     fill="#fc5c65"
     d="M14 8C14 7.44772 13.5523 7 13 7H9.76001L10.3657 3.58738C10.4201 3.28107 10.1845 3 9.87344 3H8.88907C8.64664 3 8.43914 3.17391 8.39677 3.41262L7.76001 7H4.18011C3.93722 7 3.72946 7.17456 3.68759 7.41381L3.51259 8.41381C3.45905 8.71977 3.69449 9 4.00511 9H7.41001L6.35001 15H2.77011C2.52722 15 2.31946 15.1746 2.27759 15.4138L2.10259 16.4138C2.04905 16.7198 2.28449 17 2.59511 17H6.00001L5.39427 20.4126C5.3399 20.7189 5.57547 21 5.88657 21H6.87094C7.11337 21 7.32088 20.8261 7.36325 20.5874L8.00001 17H14L13.3943 20.4126C13.3399 20.7189 13.5755 21 13.8866 21H14.8709C15.1134 21 15.3209 20.8261 15.3632 20.5874L16 17H19.5799C19.8228 17 20.0306 16.8254 20.0724 16.5862L20.2474 15.5862C20.301 15.2802 20.0655 15 19.7549 15H16.35L16.6758 13.1558C16.7823 12.5529 16.3186 12 15.7063 12C15.2286 12 14.8199 12.3429 14.7368 12.8133L14.3504 15H8.35045L9.41045 9H13C13.5523 9 14 8.55228 14 8Z"
     id="path2" />
  <path
     fill="#fc5c65"
     d="M21.025 5V4C21.025 2.88 20.05 2 19 2C17.95 2 17 2.88 17 4V5C16.4477 5 16 5.44772 16 6V9C16 9.55228 16.4477 10 17 10H19H21C21.5523 10 22 9.55228 22 9V5.975C22 5.43652 21.5635 5 21.025 5ZM20 5H18V4C18 3.42857 18.4667 3 19 3C19.5333 3 20 3.42857 20 4V5Z"
     id="path4" />
</svg>
