<?xml version="1.0" encoding="utf-8"?>
<!-- Generator: Adobe Illustrator 22.1.0, SVG Export Plug-In . SVG Version: 6.00 Build 0)  -->
<svg version="1.1" id="Layer_1" xmlns="http://www.w3.org/2000/svg" xmlns:xlink="http://www.w3.org/1999/xlink" x="0px" y="0px"
	 viewBox="0 0 1024 1024" style="enable-background:new 0 0 1024 1024;" xml:space="preserve">
<path d="M10,505.6H9.8c0,48,0,96.1-0.1,144.1c22,0.2,45.2,0.8,69.7,1.9V359.6c-24.4,1.1-47.6,1.7-69.5,1.9
	C9.9,409.5,10,457.6,10,505.6z"/>
<path d="M1014.3,78.2c-114.2,68.4-274,148.5-475.4,206.2c-144.5,41.4-277,61.7-389.7,70.7v300.9c29.2,2.4,59.8,5.5,91.6,9.5
	c-2.7,14.2-4.1,28.9-4.1,44c0,130.5,105.8,236.2,236.2,236.2c105.9,0,195.6-69.7,225.5-165.8c127.9,48.7,233.7,104,315.9,153.2V78.2
	z M472.8,876.6c-92.2,0-167-74.8-167-167c0-11.7,1.2-23.1,3.5-34.1c71.8,11.7,148.7,28.2,229.4,51.3c32.6,9.3,64.1,19.3,94.5,29.6
	C612.9,825.9,548.8,876.6,472.8,876.6z"/>
</svg>
