<?xml version="1.0" encoding="UTF-8" standalone="no"?>
<svg
   xmlns:dc="http://purl.org/dc/elements/1.1/"
   xmlns:cc="http://creativecommons.org/ns#"
   xmlns:rdf="http://www.w3.org/1999/02/22-rdf-syntax-ns#"
   xmlns:svg="http://www.w3.org/2000/svg"
   xmlns="http://www.w3.org/2000/svg"
   xmlns:sodipodi="http://sodipodi.sourceforge.net/DTD/sodipodi-0.dtd"
   xmlns:inkscape="http://www.inkscape.org/namespaces/inkscape"
   class="icon-1_QxNX"
   aria-hidden="false"
   width="24"
   height="24"
   viewBox="0 0 24 24"
   version="1.1"
   id="svg4"
   sodipodi:docname="voiceChannel.svg"
   inkscape:version="0.92.4 (5da689c313, 2019-01-14)">
  <metadata
     id="metadata10">
    <rdf:RDF>
      <cc:Work
         rdf:about="">
        <dc:format>image/svg+xml</dc:format>
        <dc:type
           rdf:resource="http://purl.org/dc/dcmitype/StillImage" />
        <dc:title></dc:title>
      </cc:Work>
    </rdf:RDF>
  </metadata>
  <defs
     id="defs8" />
  <sodipodi:namedview
     pagecolor="#ffffff"
     bordercolor="#666666"
     borderopacity="1"
     objecttolerance="10"
     gridtolerance="10"
     guidetolerance="10"
     inkscape:pageopacity="0"
     inkscape:pageshadow="2"
     inkscape:window-width="747"
     inkscape:window-height="480"
     id="namedview6"
     showgrid="false"
     inkscape:zoom="9.8333333"
     inkscape:cx="12"
     inkscape:cy="12"
     inkscape:window-x="0"
     inkscape:window-y="0"
     inkscape:window-maximized="0"
     inkscape:current-layer="svg4" />
  <path
     fill="#72767d"
     fill-rule="evenodd"
     clip-rule="evenodd"
     d="M11.383 3.07904C11.009 2.92504 10.579 3.01004 10.293 3.29604L6 8.00204H3C2.45 8.00204 2 8.45304      2 9.00204V15.002C2 15.552 2.45 16.002 3 16.002H6L10.293 20.71C10.579 20.996 11.009 21.082 11.383 20.927C11.757 20.772 12 20.407 12 20.002V4.00204C12 3.59904 11.757       3.23204 11.383 3.07904ZM14 5.00195V7.00195C16.757 7.00195 19 9.24595 19 12.002C19 14.759 16.757 17.002 14 17.002V19.002C17.86 19.002 21 15.863 21 12.002C21 8.14295        17.86 5.00195 14 5.00195ZM14 9.00195C15.654 9.00195 17 10.349 17 12.002C17 13.657 15.654 15.002 14 15.002V13.002C14.551 13.002 15 12.553 15 12.002C15 11.451 14.551         11.002 14 11.002V9.00195Z"
     id="path2" />
</svg>
