<svg id="svg" xmlns="http://www.w3.org/2000/svg" xmlns:xlink="http://www.w3.org/1999/xlink" width="400" height="400" viewBox="0, 0, 400,400"><g id="svgg"><path id="path0" d="M357.981 40.590 C 357.957 40.786,357.974 43.927,358.018 47.571 L 358.098 54.195 354.872 55.739 C 349.070 58.516,337.086 63.824,336.260 63.983 C 335.816 64.068,335.022 64.420,334.496 64.765 C 332.210 66.262,304.820 77.332,289.095 83.115 C 221.131 108.107,150.637 123.825,79.424 129.863 C 72.521 130.449,66.178 130.819,65.329 130.685 C 63.930 130.466,63.786 130.530,63.784 131.374 C 63.620 211.520,63.883 372.630,64.179 373.407 C 65.114 375.867,61.367 375.730,127.629 375.728 L 188.203 375.727 189.983 374.865 C 192.163 373.810,191.946 374.123,199.263 361.523 C 202.549 355.864,210.790 341.698,217.576 330.041 C 224.363 318.385,231.176 306.663,232.718 303.993 C 234.260 301.323,235.724 299.216,235.971 299.310 C 236.218 299.405,239.012 300.259,242.181 301.209 C 271.381 309.961,327.058 330.492,334.496 335.250 C 335.022 335.586,335.795 335.927,336.213 336.008 C 337.173 336.193,341.414 338.057,350.757 342.402 L 358.098 345.815 357.977 352.640 L 357.857 359.465 358.867 359.374 C 359.422 359.324,365.432 359.157,372.222 359.004 L 384.568 358.724 384.568 199.938 C 384.568 59.065,384.498 41.153,383.951 41.162 C 378.811 41.240,359.638 40.760,358.951 40.535 C 358.441 40.369,358.005 40.394,357.981 40.590 M19.033 132.836 L 15.638 132.955 15.638 199.974 L 15.638 266.994 21.091 267.232 C 24.090 267.362,30.015 267.548,34.259 267.643 L 41.975 267.817 41.975 200.146 L 41.975 132.474 32.202 132.595 C 26.826 132.662,20.900 132.770,19.033 132.836 M119.136 274.532 C 142.124 277.667,169.192 282.620,192.046 287.874 L 194.996 288.552 193.742 290.675 C 188.851 298.950,173.899 324.434,171.915 327.875 C 170.579 330.192,169.354 332.170,169.192 332.270 C 169.030 332.370,154.599 332.586,137.123 332.750 L 105.350 333.048 105.350 302.897 L 105.350 272.745 107.716 273.021 C 109.017 273.173,114.156 273.853,119.136 274.532 " stroke="none" fill="#72767d" fill-rule="evenodd"></path></g></svg>